<svg xmlns="http://www.w3.org/2000/svg" width="800" height="370" viewBox="0 0 800 370"><defs><linearGradient id="p" x2="1" y2="1"><stop stop-color="#b48aff"/><stop offset="1" stop-color="#7d20ff"/></linearGradient><linearGradient id="b" x2="1" y2="1"><stop stop-color="#eee5ff"/><stop offset="1" stop-color="#ccb4ff"/></linearGradient><linearGradient id="l" x2="1" y2="1"><stop stop-color="#ddff84"/><stop offset="1" stop-color="#a3ed00"/></linearGradient></defs><rect x="10" y="10" width="780" height="350" rx="80" fill="#fff" stroke="#eee5ff" stroke-width="3"/><g transform="translate(35 30) scale(1.6)"><path d="M90 75C109 39 76 19 49 30C19 42 23 80 49 91C72 103 67 81 78 80Z" fill="url(#p)"/><g fill="#f7f1ff"><circle cx="46" cy="48" r="5"/><circle cx="63" cy="39" r="5"/><circle cx="81" cy="47" r="5"/><circle cx="39" cy="66" r="5"/></g></g><circle cx="310" cy="275" r="30" fill="#b9ff28"/><circle cx="400" cy="275" r="30" fill="#8b35ff"/><circle cx="490" cy="275" r="30" fill="#ff00c9"/><circle cx="580" cy="275" r="30" fill="#ff7500"/><circle cx="670" cy="275" r="30" fill="#100e1c"/></svg>